<mxfile host="Electron" modified="2024-06-04T05:21:12.582Z" agent="Mozilla/5.0 (Windows NT 10.0; Win64; x64) AppleWebKit/537.36 (KHTML, like Gecko) draw.io/24.4.0 Chrome/120.0.6099.109 Electron/28.1.0 Safari/537.36" etag="U6rOWaIQRBgqMrZtK4xT" version="24.4.0" type="device">
  <diagram name="Page-1" id="IcbLhcTuHrykQGWk9mLX">
    <mxGraphModel dx="1050" dy="717" grid="1" gridSize="10" guides="1" tooltips="1" connect="1" arrows="1" fold="1" page="1" pageScale="1" pageWidth="1100" pageHeight="850" math="0" shadow="0">
      <root>
        <mxCell id="0" />
        <mxCell id="1" parent="0" />
        <mxCell id="6V6O945r7LAkr7qd6Hga-3" style="edgeStyle=orthogonalEdgeStyle;rounded=0;orthogonalLoop=1;jettySize=auto;html=1;exitX=1;exitY=1;exitDx=0;exitDy=0;entryX=0.5;entryY=0;entryDx=0;entryDy=0;" edge="1" parent="1" source="6V6O945r7LAkr7qd6Hga-1" target="6V6O945r7LAkr7qd6Hga-2">
          <mxGeometry relative="1" as="geometry" />
        </mxCell>
        <mxCell id="6V6O945r7LAkr7qd6Hga-1" value="Preist Dad" style="rhombus;whiteSpace=wrap;html=1;" vertex="1" parent="1">
          <mxGeometry x="40" y="40" width="80" height="80" as="geometry" />
        </mxCell>
        <mxCell id="6V6O945r7LAkr7qd6Hga-2" value="&lt;font style=&quot;font-size: 10px;&quot;&gt;Nikolai Popavich&lt;/font&gt;&lt;div style=&quot;font-size: 10px;&quot;&gt;&lt;font style=&quot;font-size: 10px;&quot;&gt;Human Cleric/Wizard&lt;/font&gt;&lt;/div&gt;" style="whiteSpace=wrap;html=1;aspect=fixed;fontSize=10;" vertex="1" parent="1">
          <mxGeometry x="200" y="240" width="80" height="80" as="geometry" />
        </mxCell>
        <mxCell id="6V6O945r7LAkr7qd6Hga-25" style="edgeStyle=orthogonalEdgeStyle;rounded=0;orthogonalLoop=1;jettySize=auto;html=1;exitX=0;exitY=0.5;exitDx=0;exitDy=0;entryX=0.5;entryY=0;entryDx=0;entryDy=0;" edge="1" parent="1" source="6V6O945r7LAkr7qd6Hga-4" target="6V6O945r7LAkr7qd6Hga-24">
          <mxGeometry relative="1" as="geometry" />
        </mxCell>
        <mxCell id="6V6O945r7LAkr7qd6Hga-27" style="edgeStyle=orthogonalEdgeStyle;rounded=0;orthogonalLoop=1;jettySize=auto;html=1;exitX=1;exitY=0.5;exitDx=0;exitDy=0;" edge="1" parent="1" source="6V6O945r7LAkr7qd6Hga-4">
          <mxGeometry relative="1" as="geometry">
            <mxPoint x="780" y="130" as="targetPoint" />
          </mxGeometry>
        </mxCell>
        <mxCell id="6V6O945r7LAkr7qd6Hga-4" value="Kyriealight&lt;div&gt;E. Genasi Artificer&lt;/div&gt;" style="whiteSpace=wrap;html=1;aspect=fixed;fontSize=10;" vertex="1" parent="1">
          <mxGeometry x="480" y="40" width="80" height="80" as="geometry" />
        </mxCell>
        <mxCell id="6V6O945r7LAkr7qd6Hga-17" style="edgeStyle=orthogonalEdgeStyle;rounded=0;orthogonalLoop=1;jettySize=auto;html=1;exitX=0;exitY=0.5;exitDx=0;exitDy=0;entryX=1;entryY=0.5;entryDx=0;entryDy=0;" edge="1" parent="1" source="6V6O945r7LAkr7qd6Hga-5" target="6V6O945r7LAkr7qd6Hga-16">
          <mxGeometry relative="1" as="geometry" />
        </mxCell>
        <mxCell id="6V6O945r7LAkr7qd6Hga-5" value="Cucu&lt;br&gt;Kenku Druid" style="whiteSpace=wrap;html=1;aspect=fixed;fontSize=10;" vertex="1" parent="1">
          <mxGeometry x="760" y="240" width="80" height="80" as="geometry" />
        </mxCell>
        <mxCell id="6V6O945r7LAkr7qd6Hga-12" style="edgeStyle=orthogonalEdgeStyle;rounded=0;orthogonalLoop=1;jettySize=auto;html=1;exitX=1;exitY=0.5;exitDx=0;exitDy=0;entryX=0.07;entryY=0.4;entryDx=0;entryDy=0;entryPerimeter=0;" edge="1" parent="1" source="6V6O945r7LAkr7qd6Hga-6" target="6V6O945r7LAkr7qd6Hga-8">
          <mxGeometry relative="1" as="geometry" />
        </mxCell>
        <mxCell id="6V6O945r7LAkr7qd6Hga-18" style="edgeStyle=orthogonalEdgeStyle;rounded=0;orthogonalLoop=1;jettySize=auto;html=1;exitX=0.5;exitY=0;exitDx=0;exitDy=0;entryX=0;entryY=0.5;entryDx=0;entryDy=0;startArrow=classic;startFill=1;endArrow=none;endFill=0;" edge="1" parent="1" source="6V6O945r7LAkr7qd6Hga-6" target="6V6O945r7LAkr7qd6Hga-16">
          <mxGeometry relative="1" as="geometry">
            <Array as="points">
              <mxPoint x="320" y="300" />
            </Array>
          </mxGeometry>
        </mxCell>
        <mxCell id="6V6O945r7LAkr7qd6Hga-6" value="Arii Loneblade Tenakolaki&lt;div&gt;Goliath Rogue/Fighter&lt;/div&gt;" style="whiteSpace=wrap;html=1;aspect=fixed;fontSize=10;" vertex="1" parent="1">
          <mxGeometry x="280" y="560" width="80" height="80" as="geometry" />
        </mxCell>
        <mxCell id="6V6O945r7LAkr7qd6Hga-23" style="edgeStyle=orthogonalEdgeStyle;rounded=0;orthogonalLoop=1;jettySize=auto;html=1;exitX=0.5;exitY=0;exitDx=0;exitDy=0;entryX=0.5;entryY=1;entryDx=0;entryDy=0;" edge="1" parent="1" source="6V6O945r7LAkr7qd6Hga-7" target="6V6O945r7LAkr7qd6Hga-19">
          <mxGeometry relative="1" as="geometry" />
        </mxCell>
        <mxCell id="6V6O945r7LAkr7qd6Hga-7" value="Boyle&lt;div&gt;Dwarf Fighter/Barbarian&lt;/div&gt;" style="whiteSpace=wrap;html=1;aspect=fixed;fontSize=10;" vertex="1" parent="1">
          <mxGeometry x="680" y="560" width="80" height="80" as="geometry" />
        </mxCell>
        <mxCell id="6V6O945r7LAkr7qd6Hga-8" value="Criminal" style="ellipse;shape=cloud;whiteSpace=wrap;html=1;" vertex="1" parent="1">
          <mxGeometry x="480" y="620" width="80" height="40" as="geometry" />
        </mxCell>
        <mxCell id="6V6O945r7LAkr7qd6Hga-10" style="edgeStyle=orthogonalEdgeStyle;rounded=0;orthogonalLoop=1;jettySize=auto;html=1;exitX=1;exitY=0.5;exitDx=0;exitDy=0;entryX=0.5;entryY=0;entryDx=0;entryDy=0;" edge="1" parent="1" source="6V6O945r7LAkr7qd6Hga-9" target="6V6O945r7LAkr7qd6Hga-5">
          <mxGeometry relative="1" as="geometry" />
        </mxCell>
        <mxCell id="6V6O945r7LAkr7qd6Hga-11" style="edgeStyle=orthogonalEdgeStyle;rounded=0;orthogonalLoop=1;jettySize=auto;html=1;exitX=0;exitY=0.5;exitDx=0;exitDy=0;entryX=0.5;entryY=0;entryDx=0;entryDy=0;" edge="1" parent="1" source="6V6O945r7LAkr7qd6Hga-9" target="6V6O945r7LAkr7qd6Hga-2">
          <mxGeometry relative="1" as="geometry" />
        </mxCell>
        <mxCell id="6V6O945r7LAkr7qd6Hga-9" value="College" style="shape=parallelogram;perimeter=parallelogramPerimeter;whiteSpace=wrap;html=1;fixedSize=1;" vertex="1" parent="1">
          <mxGeometry x="480" y="200" width="80" height="40" as="geometry" />
        </mxCell>
        <mxCell id="6V6O945r7LAkr7qd6Hga-13" style="edgeStyle=orthogonalEdgeStyle;rounded=0;orthogonalLoop=1;jettySize=auto;html=1;exitX=0;exitY=0.5;exitDx=0;exitDy=0;entryX=0.96;entryY=0.7;entryDx=0;entryDy=0;entryPerimeter=0;" edge="1" parent="1" source="6V6O945r7LAkr7qd6Hga-7" target="6V6O945r7LAkr7qd6Hga-8">
          <mxGeometry relative="1" as="geometry" />
        </mxCell>
        <mxCell id="6V6O945r7LAkr7qd6Hga-16" value="Saved" style="shape=parallelogram;perimeter=parallelogramPerimeter;whiteSpace=wrap;html=1;fixedSize=1;" vertex="1" parent="1">
          <mxGeometry x="480" y="280" width="80" height="40" as="geometry" />
        </mxCell>
        <mxCell id="6V6O945r7LAkr7qd6Hga-22" style="edgeStyle=orthogonalEdgeStyle;rounded=0;orthogonalLoop=1;jettySize=auto;html=1;exitX=0;exitY=0.75;exitDx=0;exitDy=0;entryX=0.5;entryY=1;entryDx=0;entryDy=0;" edge="1" parent="1" source="6V6O945r7LAkr7qd6Hga-19" target="6V6O945r7LAkr7qd6Hga-2">
          <mxGeometry relative="1" as="geometry" />
        </mxCell>
        <mxCell id="6V6O945r7LAkr7qd6Hga-19" value="Hired" style="shape=parallelogram;perimeter=parallelogramPerimeter;whiteSpace=wrap;html=1;fixedSize=1;" vertex="1" parent="1">
          <mxGeometry x="480" y="360" width="80" height="40" as="geometry" />
        </mxCell>
        <mxCell id="6V6O945r7LAkr7qd6Hga-26" style="edgeStyle=orthogonalEdgeStyle;rounded=0;orthogonalLoop=1;jettySize=auto;html=1;exitX=0.25;exitY=1;exitDx=0;exitDy=0;entryX=0.5;entryY=0;entryDx=0;entryDy=0;" edge="1" parent="1" source="6V6O945r7LAkr7qd6Hga-24" target="6V6O945r7LAkr7qd6Hga-2">
          <mxGeometry relative="1" as="geometry" />
        </mxCell>
        <mxCell id="6V6O945r7LAkr7qd6Hga-24" value="College" style="shape=parallelogram;perimeter=parallelogramPerimeter;whiteSpace=wrap;html=1;fixedSize=1;" vertex="1" parent="1">
          <mxGeometry x="360" y="120" width="80" height="40" as="geometry" />
        </mxCell>
        <mxCell id="6V6O945r7LAkr7qd6Hga-29" style="edgeStyle=orthogonalEdgeStyle;rounded=0;orthogonalLoop=1;jettySize=auto;html=1;exitX=0.5;exitY=1;exitDx=0;exitDy=0;entryX=0.5;entryY=0;entryDx=0;entryDy=0;" edge="1" parent="1" source="6V6O945r7LAkr7qd6Hga-28" target="6V6O945r7LAkr7qd6Hga-5">
          <mxGeometry relative="1" as="geometry" />
        </mxCell>
        <mxCell id="6V6O945r7LAkr7qd6Hga-28" value="Saved" style="shape=parallelogram;perimeter=parallelogramPerimeter;whiteSpace=wrap;html=1;fixedSize=1;" vertex="1" parent="1">
          <mxGeometry x="740" y="130" width="80" height="40" as="geometry" />
        </mxCell>
      </root>
    </mxGraphModel>
  </diagram>
</mxfile>
